<svg width="15" height="15" viewBox="0 0 15 15" fill="none" xmlns="http://www.w3.org/2000/svg">
<path d="M7.08175 2.00034C7.10819 1.95232 7.14703 1.91228 7.19422 1.88439C7.24141 1.85651 7.29522 1.8418 7.35003 1.8418C7.40484 1.8418 7.45865 1.85651 7.50584 1.88439C7.55303 1.91228 7.59187 1.95232 7.6183 2.00034L9.4264 5.43279C9.46952 5.51227 9.5297 5.58122 9.60262 5.63468C9.67555 5.68814 9.7594 5.7248 9.84817 5.74201C9.93694 5.75923 10.0284 5.75658 10.116 5.73425C10.2037 5.71192 10.2853 5.67046 10.355 5.61286L12.9746 3.36866C13.0249 3.32776 13.0869 3.30387 13.1516 3.30043C13.2163 3.29699 13.2805 3.31418 13.3348 3.34952C13.3892 3.38486 13.4309 3.43653 13.454 3.4971C13.4771 3.55766 13.4804 3.624 13.4634 3.68655L11.7276 9.96223C11.6921 10.0906 11.6158 10.204 11.5101 10.2851C11.4045 10.3663 11.2752 10.4107 11.142 10.4118H3.55865C3.42533 10.4109 3.29596 10.3665 3.19017 10.2853C3.08438 10.2042 3.00795 10.0907 2.97249 9.96223L1.23728 3.68716C1.22028 3.62461 1.22357 3.55828 1.24667 3.49771C1.26978 3.43715 1.3115 3.38547 1.36584 3.35013C1.42018 3.31479 1.48433 3.2976 1.54906 3.30104C1.6138 3.30448 1.67576 3.32837 1.72605 3.36928L4.3451 5.61348C4.4148 5.67108 4.4964 5.71253 4.58402 5.73486C4.67164 5.75719 4.76312 5.75984 4.85189 5.74263C4.94065 5.72541 5.02451 5.68876 5.09743 5.63529C5.17035 5.58183 5.23053 5.51288 5.27365 5.4334L7.08175 2.00034Z" fill="white" stroke="white" stroke-width="1.225" stroke-linecap="round" stroke-linejoin="round"/>
<path d="M3.0625 12.8625H11.6375H3.0625Z" fill="white"/>
<path d="M3.0625 12.8625H11.6375" stroke="white" stroke-width="1.225" stroke-linecap="round" stroke-linejoin="round"/>
</svg>
