<svg width="14" height="14" viewBox="0 0 14 14" fill="none" xmlns="http://www.w3.org/2000/svg">
<path d="M7 5.83325V9.33325" stroke="#00a63e" stroke-width="1.16667" stroke-linecap="round" stroke-linejoin="round"/>
<path d="M5.25 7.58325H8.75" stroke="#00a63e" stroke-width="1.16667" stroke-linecap="round" stroke-linejoin="round"/>
<path d="M11.667 11.6667C11.9764 11.6667 12.2732 11.5437 12.4919 11.325C12.7107 11.1062 12.8337 10.8094 12.8337 10.5V4.66667C12.8337 4.35725 12.7107 4.0605 12.4919 3.84171C12.2732 3.62292 11.9764 3.5 11.667 3.5H7.05866C6.86354 3.50191 6.67106 3.45486 6.49883 3.36314C6.32661 3.27142 6.18014 3.13797 6.07283 2.975L5.60033 2.275C5.49409 2.11369 5.34948 1.98128 5.17945 1.88965C5.00942 1.79802 4.81931 1.75003 4.62616 1.75H2.33366C2.02424 1.75 1.72749 1.87292 1.5087 2.09171C1.28991 2.3105 1.16699 2.60725 1.16699 2.91667V10.5C1.16699 10.8094 1.28991 11.1062 1.5087 11.325C1.72749 11.5437 2.02424 11.6667 2.33366 11.6667H11.667Z" stroke="#00a63e" stroke-width="1.16667" stroke-linecap="round" stroke-linejoin="round"/>
</svg>
