<svg width="14" height="14" viewBox="0 0 14 14" fill="none" xmlns="http://www.w3.org/2000/svg">
  <path d="M8.75033 3.43008L8.16699 5.83341H11.5678C11.7489 5.83341 11.9276 5.87558 12.0896 5.95658C12.2516 6.03758 12.3925 6.15519 12.5012 6.30008C12.6098 6.44498 12.6833 6.61318 12.7157 6.79138C12.7481 6.96958 12.7385 7.15287 12.6878 7.32675L11.3287 11.9934C11.258 12.2357 11.1106 12.4486 10.9087 12.6001C10.7067 12.7515 10.4611 12.8334 10.2087 12.8334H2.33366C2.02424 12.8334 1.72749 12.7105 1.5087 12.4917C1.28991 12.2729 1.16699 11.9762 1.16699 11.6667V7.00008C1.16699 6.69066 1.28991 6.39392 1.5087 6.17512C1.72749 5.95633 2.02424 5.83341 2.33366 5.83341H3.94366C4.16071 5.8333 4.37342 5.77264 4.55788 5.65825C4.74234 5.54386 4.89124 5.38029 4.98783 5.18591L7.00033 1.16675C7.27541 1.17015 7.54617 1.23568 7.79238 1.35843C8.03858 1.48118 8.25387 1.65798 8.42214 1.87562C8.59042 2.09326 8.70734 2.34611 8.76417 2.61528C8.821 2.88446 8.81627 3.16299 8.75033 3.43008Z" 
        fill="#ffffff" 
        stroke="#374151" stroke-width="1.16667" stroke-linecap="round" stroke-linejoin="round"/>
        
  <path d="M4.08301 5.83325V12.8333" 
        stroke="#374151" stroke-width="1.16667" stroke-linecap="round" stroke-linejoin="round"/>
</svg>