<svg width="14" height="14" viewBox="0 0 14 14" fill="none" xmlns="http://www.w3.org/2000/svg">
<path d="M12.623 2.12322L11.8763 1.37655C11.8107 1.31024 11.7325 1.25759 11.6464 1.22166C11.5603 1.18574 11.4679 1.16724 11.3746 1.16724C11.2813 1.16724 11.189 1.18574 11.1028 1.22166C11.0167 1.25759 10.9386 1.31024 10.873 1.37655L1.37631 10.8732C1.30999 10.9389 1.25735 11.017 1.22142 11.1031C1.18549 11.1892 1.16699 11.2816 1.16699 11.3749C1.16699 11.4682 1.18549 11.5606 1.22142 11.6467C1.25735 11.7328 1.30999 11.8109 1.37631 11.8766L2.12297 12.6232C2.1882 12.6902 2.2662 12.7435 2.35237 12.7799C2.43853 12.8163 2.53111 12.835 2.62464 12.835C2.71817 12.835 2.81075 12.8163 2.89691 12.7799C2.98308 12.7435 3.06108 12.6902 3.12631 12.6232L12.623 3.12655C12.69 3.06132 12.7433 2.98332 12.7797 2.89716C12.816 2.81099 12.8348 2.71841 12.8348 2.62488C12.8348 2.53135 12.816 2.43877 12.7797 2.35261C12.7433 2.26645 12.69 2.18845 12.623 2.12322Z" stroke="#00a63e" stroke-width="1.16667" stroke-linecap="round" stroke-linejoin="round"/>
<path d="M8.16699 4.08325L9.91699 5.83325" stroke="#00a63e" stroke-width="1.16667" stroke-linecap="round" stroke-linejoin="round"/>
<path d="M2.91699 3.5V5.83333" stroke="#00a63e" stroke-width="1.16667" stroke-linecap="round" stroke-linejoin="round"/>
<path d="M11.083 8.16675V10.5001" stroke="#00a63e" stroke-width="1.16667" stroke-linecap="round" stroke-linejoin="round"/>
<path d="M5.83301 1.16675V2.33341" stroke="#00a63e" stroke-width="1.16667" stroke-linecap="round" stroke-linejoin="round"/>
<path d="M4.08333 4.66675H1.75" stroke="#00a63e" stroke-width="1.16667" stroke-linecap="round" stroke-linejoin="round"/>
<path d="M12.2503 9.33325H9.91699" stroke="#00a63e" stroke-width="1.16667" stroke-linecap="round" stroke-linejoin="round"/>
<path d="M6.41667 1.75H5.25" stroke="#00a63e" stroke-width="1.16667" stroke-linecap="round" stroke-linejoin="round"/>
</svg>
