<svg width="14" height="14" viewBox="0 0 14 14" fill="none" xmlns="http://www.w3.org/2000/svg">
<path d="M6.74434 1.90539C6.76952 1.85966 6.80651 1.82152 6.85145 1.79496C6.89639 1.76841 6.94764 1.75439 6.99984 1.75439C7.05204 1.75439 7.10329 1.76841 7.14823 1.79496C7.19317 1.82152 7.23016 1.85966 7.25534 1.90539L8.97734 5.17439C9.01841 5.25008 9.07572 5.31575 9.14517 5.36666C9.21462 5.41758 9.29448 5.45249 9.37902 5.46889C9.46356 5.48528 9.55069 5.48276 9.63414 5.46149C9.71759 5.44022 9.79529 5.40074 9.86167 5.34589L12.3566 3.20855C12.4045 3.1696 12.4635 3.14685 12.5251 3.14357C12.5868 3.14029 12.6479 3.15666 12.6996 3.19032C12.7514 3.22398 12.7911 3.27319 12.8131 3.33087C12.8351 3.38855 12.8383 3.45173 12.8221 3.5113L11.1689 9.48814C11.1352 9.61044 11.0625 9.71841 10.9618 9.79568C10.8612 9.87294 10.7381 9.91529 10.6113 9.9163H3.38901C3.26204 9.91542 3.13882 9.87313 3.03807 9.79585C2.93732 9.71858 2.86453 9.61054 2.83076 9.48814L1.17817 3.51189C1.16199 3.45231 1.16512 3.38914 1.18712 3.33146C1.20913 3.27378 1.24886 3.22456 1.30062 3.19091C1.35237 3.15725 1.41347 3.14088 1.47511 3.14415C1.53676 3.14743 1.59578 3.17018 1.64367 3.20914L4.13801 5.34647C4.20439 5.40133 4.28209 5.44081 4.36554 5.46207C4.44899 5.48334 4.53612 5.48587 4.62066 5.46947C4.7052 5.45308 4.78506 5.41817 4.85451 5.36725C4.92396 5.31633 4.98128 5.25067 5.02234 5.17497L6.74434 1.90539Z" stroke="#A16207" stroke-width="1.16667" stroke-linecap="round" stroke-linejoin="round"/>
<path d="M2.91699 12.25H11.0837" stroke="#A16207" stroke-width="1.16667" stroke-linecap="round" stroke-linejoin="round"/>
</svg>
